<svg width="20" height="30" viewBox="0 0 20 30" fill="none" xmlns="http://www.w3.org/2000/svg">
<path fill-rule="evenodd" clip-rule="evenodd" d="M5.38401 0H13.9935C16.9615 0 19.3775 2.64003 19.3775 5.80946C19.3775 7.66232 18.5509 9.33597 17.2705 10.4044C18.5509 11.4742 19.3775 13.1465 19.3775 15.0007C19.3775 18.1688 16.9615 20.8088 13.9935 20.8088C12.7843 20.8088 11.667 20.3718 10.768 19.6383V24.1905C10.768 27.36 8.35319 30 5.38401 30C2.41606 30 0 27.36 0 24.1905C0 22.3377 0.826595 20.6654 2.10698 19.5956C0.826595 18.5258 0 16.8536 0 15.0007C0 13.1465 0.826595 11.4742 2.10698 10.4044C0.826595 9.33597 0 7.66232 0 5.80946C0 2.64003 2.41606 0 5.38401 0ZM8.6095 20.8088H5.38401C3.63022 20.8088 2.1585 22.3184 2.1585 24.1905C2.1585 26.0641 3.63022 27.5723 5.38401 27.5723C7.13903 27.5723 8.6095 26.0641 8.6095 24.1905V20.8088ZM10.768 15.0007C10.768 13.1272 12.2385 11.6176 13.9935 11.6176C15.7473 11.6176 17.219 13.1272 17.219 15.0007C17.219 16.8729 15.7473 18.3824 13.9935 18.3824C12.2385 18.3824 10.768 16.8729 10.768 15.0007ZM5.34353 11.619C3.60691 11.641 2.1585 13.1423 2.1585 15.0007C2.1585 16.8729 3.63022 18.3824 5.38401 18.3824H8.6095V11.6176H5.38401L5.34353 11.619ZM8.6095 9.19121V2.42772H5.38401C3.63022 2.42772 2.1585 3.93593 2.1585 5.80946C2.1585 7.683 3.63022 9.19121 5.38401 9.19121H8.6095ZM10.768 9.19121H13.9935C15.7473 9.19121 17.219 7.683 17.219 5.80946C17.219 3.93593 15.7473 2.42772 13.9935 2.42772H10.768V9.19121Z" fill="#616161"/>
</svg>
