<svg width="26" height="26" viewBox="0 0 26 26" fill="none" xmlns="http://www.w3.org/2000/svg">
<path fill-rule="evenodd" clip-rule="evenodd" d="M25.3863 1.73876C25.3863 1.11751 24.8826 0.61377 24.2613 0.61377H1.73882C1.11757 0.61377 0.613831 1.11751 0.613831 1.73876V24.2613C0.613831 24.8825 1.11757 25.3863 1.73882 25.3863H24.2613C24.8826 25.3863 25.3863 24.8825 25.3863 24.2613V1.73876ZM2.86382 2.86375V23.1363H23.1363V2.86375H2.86382ZM19.6401 11.0813C19.1338 10.6388 18.2826 10.2975 17.4326 10.27C16.5663 10.2413 15.7301 10.53 15.1838 11.1638C14.8176 11.5888 14.5563 12.18 14.5563 13C14.5563 14.4025 15.3551 15.0188 16.4188 15.4175C16.6951 15.5213 16.9926 15.6075 17.2738 15.7138C17.5101 15.8038 17.7738 15.8788 17.7738 16.2175C17.7738 16.4038 17.7663 16.5475 17.6863 16.635C17.5676 16.765 17.3676 16.7338 17.1901 16.7188C16.9001 16.6925 16.6038 16.6213 16.4763 16.495C16.0376 16.055 15.3251 16.055 14.8863 16.495C14.4463 16.9338 14.4463 17.6463 14.8863 18.085C15.2738 18.4738 16.1088 18.8825 16.9938 18.96C17.8738 19.0375 18.7613 18.7937 19.3463 18.1537C19.7351 17.7287 20.0238 17.1138 20.0238 16.2175C20.0238 14.7188 19.2151 14.0687 18.1863 13.655C17.8951 13.5375 17.5813 13.445 17.2863 13.3388C17.1888 13.3038 17.0938 13.2688 17.0051 13.2263C16.9088 13.1813 16.8063 13.1375 16.8063 13C16.8063 12.8413 16.8163 12.715 16.8876 12.6325C16.9976 12.5063 17.1851 12.5125 17.3588 12.5188C17.6626 12.5288 17.9776 12.6163 18.1576 12.7738C18.6251 13.1825 19.3363 13.135 19.7451 12.6687C20.1538 12.2012 20.1063 11.49 19.6401 11.0813ZM7.04884 17.8263V8.17377C7.04884 7.60377 7.47384 7.12501 8.04009 7.05626C9.57759 6.87251 11.1126 6.93375 12.2663 7.37875C13.7051 7.93625 14.6613 9.01251 14.6613 10.855C14.6613 12.6388 13.4963 13.875 11.9551 14.4875C11.1126 14.8225 10.1676 14.9563 9.29883 14.9063V17.8263C9.29883 18.4475 8.79509 18.9512 8.17384 18.9512C7.55259 18.9512 7.04884 18.4475 7.04884 17.8263ZM9.29883 12.6625C9.87883 12.7213 10.5426 12.6275 11.1226 12.3975C11.8076 12.125 12.4113 11.6463 12.4113 10.855C12.4113 9.93126 11.7838 9.51501 10.9751 9.33501C10.4651 9.22126 9.89383 9.18876 9.29883 9.21126V12.6625Z" fill="#616161"/>
</svg>
