<svg width="21" height="21" viewBox="0 0 21 21" fill="#5671a6" xmlns="http://www.w3.org/2000/svg">
<path fill-rule="evenodd" clip-rule="evenodd" d="M1.47618 1.47618C0 2.95236 0 5.32823 0 10.08V10.92C0 15.6718 0 18.0476 1.47618 19.5238C2.95236 21 5.32823 21 10.08 21H10.92C15.6718 21 18.0476 21 19.5238 19.5238C21 18.0476 21 15.6718 21 10.92V10.08C21 5.32823 21 2.95236 19.5238 1.47618C18.0476 0 15.6718 0 10.92 0H10.08C5.32823 0 2.95236 0 1.47618 1.47618ZM3.5438 6.38754C3.65755 11.8475 6.38754 15.1288 11.1738 15.1288H11.4451V12.005C13.2038 12.18 14.5337 13.4663 15.0675 15.1288H17.5525C16.87 12.6438 15.0762 11.27 13.9562 10.745C15.0762 10.0975 16.6512 8.52254 17.0275 6.38754H14.7699C14.2799 8.12004 12.8276 9.69504 11.4451 9.84379V6.38754H9.1875V12.4425C7.7875 12.0925 6.02004 10.395 5.94129 6.38754H3.5438Z" fill="current"/>
</svg>
